<svg width="90" height="90" viewBox="0 0 90 90" fill="none" xmlns="http://www.w3.org/2000/svg">
<rect width="90" height="90" fill="#E5E5E5"/>
<rect x="1" y="1" width="88" height="88" fill="#476C83" stroke="#C4C2C2" stroke-width="2"/>
<path d="M23.464 50V48.416H26.302L26.28 36.36H28.04V48.416H30.504V50H23.464ZM23.266 39L22.87 37.46L26.28 36.36V38.12L23.266 39ZM33.3327 46.414C33.3327 44.742 34.1394 43.5247 35.7527 42.762C34.4767 42.0433 33.8387 41.0533 33.8387 39.792C33.8387 38.7067 34.2054 37.8047 34.9387 37.086C35.6721 36.3673 36.7207 36.008 38.0847 36.008C39.4487 36.008 40.4974 36.3673 41.2307 37.086C41.9641 37.79 42.3307 38.7287 42.3307 39.902C42.3307 41.0753 41.7074 42.0433 40.4607 42.806C42.0447 43.51 42.8367 44.7127 42.8367 46.414C42.8367 47.4847 42.4114 48.4087 41.5607 49.186C40.7247 49.9633 39.5661 50.352 38.0847 50.352C36.6034 50.352 35.4374 49.9633 34.5867 49.186C33.7507 48.4087 33.3327 47.4847 33.3327 46.414ZM35.0047 46.414C35.0047 47.074 35.2761 47.6387 35.8187 48.108C36.3614 48.5627 37.1167 48.79 38.0847 48.79C39.0527 48.79 39.8081 48.5627 40.3507 48.108C40.8934 47.6387 41.1647 47.052 41.1647 46.348C41.1647 45.6293 40.9154 45.0647 40.4167 44.654C39.9181 44.2433 39.1187 43.8987 38.0187 43.62C37.6814 43.5467 37.4101 43.4733 37.2047 43.4C35.7381 44.1773 35.0047 45.182 35.0047 46.414ZM36.1707 38.208C35.7307 38.6187 35.5107 39.132 35.5107 39.748C35.5107 40.364 35.7527 40.8627 36.2367 41.244C36.7207 41.6253 37.5714 41.97 38.7887 42.278C40.0354 41.618 40.6587 40.7527 40.6587 39.682C40.6587 39.0807 40.4387 38.582 39.9987 38.186C39.5587 37.7753 38.9207 37.57 38.0847 37.57C37.2634 37.57 36.6254 37.7827 36.1707 38.208ZM45.6654 48.372C44.8294 47.0373 44.4114 45.3067 44.4114 43.18C44.4114 41.0533 44.8294 39.33 45.6654 38.01C46.5014 36.6753 47.7628 36.008 49.4494 36.008C51.1361 36.008 52.4048 36.6753 53.2554 38.01C54.1061 39.3447 54.5314 41.068 54.5314 43.18C54.5314 45.292 54.1061 47.0153 53.2554 48.35C52.4048 49.6847 51.1361 50.352 49.4494 50.352C47.7628 50.352 46.5014 49.692 45.6654 48.372ZM46.9414 39.176C46.3988 40.2027 46.1274 41.5373 46.1274 43.18C46.1274 44.8227 46.3988 46.1647 46.9414 47.206C47.4988 48.2327 48.3348 48.746 49.4494 48.746C50.5641 48.746 51.4001 48.2253 51.9574 47.184C52.5294 46.1427 52.8154 44.808 52.8154 43.18C52.8154 41.552 52.5294 40.2173 51.9574 39.176C51.4001 38.1347 50.5641 37.614 49.4494 37.614C48.3348 37.614 47.4988 38.1347 46.9414 39.176Z" fill="black"/>
<path d="M42.5 16C46.1114 16 49.6873 16.7113 53.0238 18.0933C56.3602 19.4753 59.3918 21.501 61.9454 24.0546C64.499 26.6082 66.5247 29.6398 67.9067 32.9762C69.2887 36.3127 70 39.8886 70 43.5C70 47.1114 69.2887 50.6873 67.9067 54.0238C66.5247 57.3602 64.499 60.3918 61.9454 62.9454C59.3918 65.499 56.3602 67.5247 53.0238 68.9067C49.6873 70.2887 46.1113 71 42.5 71L42.5 64.5359C45.2625 64.5359 47.9979 63.9918 50.5501 62.9347C53.1023 61.8775 55.4213 60.328 57.3747 58.3747C59.328 56.4213 60.8775 54.1023 61.9347 51.5501C62.9918 48.9979 63.5359 46.2625 63.5359 43.5C63.5359 40.7375 62.9918 38.0021 61.9347 35.4499C60.8775 32.8977 59.328 30.5787 57.3747 28.6253C55.4213 26.672 53.1023 25.1225 50.5501 24.0653C47.9979 23.0082 45.2625 22.4641 42.5 22.4641L42.5 16Z" fill="black"/>
<rect x="41" y="14" width="3" height="11" fill="black"/>
<path d="M41.6881 14.1429L41.6523 24.9681L32.2952 19.5245L41.6881 14.1429Z" fill="black"/>
</svg>
