<svg width="90" height="90" viewBox="0 0 90 90" fill="none" xmlns="http://www.w3.org/2000/svg">
<rect width="90" height="90" fill="#E5E5E5"/>
<rect x="1" y="1" width="88" height="88" fill="#476C83" stroke="#C4C2C2" stroke-width="2"/>
<path d="M37.5 20C41.1114 20 44.6873 20.7113 48.0238 22.0933C51.3602 23.4753 54.3918 25.501 56.9454 28.0546C59.499 30.6082 61.5247 33.6398 62.9067 36.9762C64.2887 40.3127 65 43.8886 65 47.5C65 51.1114 64.2887 54.6873 62.9067 58.0238C61.5247 61.3602 59.499 64.3918 56.9454 66.9454C54.3918 69.499 51.3602 71.5247 48.0238 72.9067C44.6873 74.2887 41.1113 75 37.5 75L37.5 68.5359C40.2625 68.5359 42.9979 67.9918 45.5501 66.9347C48.1023 65.8775 50.4213 64.328 52.3747 62.3747C54.328 60.4213 55.8775 58.1023 56.9347 55.5501C57.9918 52.9979 58.5359 50.2625 58.5359 47.5C58.5359 44.7375 57.9918 42.0021 56.9347 39.4499C55.8775 36.8977 54.328 34.5787 52.3747 32.6253C50.4213 30.672 48.1023 29.1225 45.5501 28.0653C42.9979 27.0082 40.2625 26.4641 37.5 26.4641L37.5 20Z" fill="black"/>
<rect x="35" y="18" width="3" height="11" fill="black"/>
<path d="M35.6881 18.1429L35.6523 28.9681L26.2952 23.5245L35.6881 18.1429Z" fill="black"/>
</svg>
