<svg width="90" height="90" viewBox="0 0 90 90" fill="none" xmlns="http://www.w3.org/2000/svg">
<rect width="90" height="90" fill="#E5E5E5"/>
<rect x="1" y="1" width="88" height="88" fill="#476C83" stroke="#C4C2C2" stroke-width="2"/>
<path d="M48.5 20C41.2065 20 34.2118 22.8973 29.0546 28.0546C23.8973 33.2118 21 40.2065 21 47.5C21 54.7935 23.8973 61.7882 29.0546 66.9454C34.2118 72.1027 41.2065 75 48.5 75L48.5 68.5347C42.9212 68.5347 37.571 66.3186 33.6262 62.3738C29.6814 58.429 27.4652 53.0788 27.4653 47.5C27.4653 41.9212 29.6814 36.571 33.6262 32.6262C37.571 28.6814 42.9212 26.4653 48.5 26.4653L48.5 20Z" fill="black"/>
<rect x="51.0866" y="29.0901" width="3" height="11" transform="rotate(-179.935 51.0866 29.0901)" fill="black"/>
<path d="M50.3987 28.9465L50.4469 18.1212L59.7977 23.5756L50.3987 28.9465Z" fill="black"/>
</svg>
